<svg width="90" height="90" viewBox="0 0 90 90" fill="none" xmlns="http://www.w3.org/2000/svg">
<path d="M71.1472 41.3911C71.1206 41.8919 71.0064 42.3678 70.8197 42.8036L70.7072 43.0461L70.4181 43.6711L70.1572 44.2353L65.6164 54.0394L65.5889 54.0978L65.5839 54.1094C65.5272 54.2469 65.4922 54.3953 65.4839 54.5519C65.4822 54.5761 65.4822 54.5994 65.4822 54.6236V60.1736H65.4814C65.4814 60.2303 65.4806 60.2878 65.4772 60.3453C65.4681 60.5136 65.4464 60.6786 65.4122 60.8386C65.1956 61.8619 64.4906 62.6953 63.5622 63.1053C63.1106 63.3044 62.6047 63.4036 62.0781 63.3753C61.6539 63.3528 61.2531 63.2494 60.8897 63.0819C60.0789 62.7086 59.4556 62.0128 59.1756 61.1703C59.0856 60.8978 59.0314 60.6094 59.0189 60.3111V54.3753C59.0189 54.1844 59.0239 53.9928 59.0339 53.7994C59.0531 53.4386 59.0897 53.0836 59.1439 52.7336C59.2881 51.7961 59.5539 50.9011 59.9239 50.0636L60.0722 49.7453L62.3747 44.7736L62.3731 44.7728C62.4364 44.6411 62.4747 44.4944 62.4831 44.3394C62.5156 43.7369 62.0789 43.2169 61.4897 43.1278L61.4314 43.1203H61.4306L61.0706 43.0744L38.7872 40.2303L34.2206 39.6478L34.1681 39.6411C32.0772 39.3644 30.4664 37.6869 30.2631 35.6328C30.2022 34.9894 30.1714 34.3378 30.1714 33.6803C30.1714 22.2219 39.4606 12.9336 50.9189 12.9336C60.4814 12.9336 68.5331 19.4028 70.9347 28.2036C70.9847 28.3869 71.0322 28.5711 71.0772 28.7561C71.1089 28.9403 71.1256 29.1303 71.1256 29.3244C71.1256 31.1819 69.6197 32.6886 67.7614 32.6886C66.2022 32.6886 64.8897 31.6261 64.5089 30.1861C64.4997 30.1469 64.4897 30.1078 64.4797 30.0694C62.9581 24.0278 57.4872 19.5553 50.9739 19.5553C43.9872 19.5553 38.2014 24.7003 37.2006 31.4094C37.1939 31.4494 37.1881 31.4894 37.1822 31.5303C37.1789 31.5569 37.1747 31.5836 37.1714 31.6111C37.1689 31.6369 37.1672 31.6628 37.1656 31.6886C37.1256 32.4411 37.6289 33.0969 38.3356 33.2836L38.7489 33.3361L38.8972 33.3553L64.5456 36.6286L67.4414 36.9978L67.4781 37.0028C69.0039 37.2036 70.2572 38.2036 70.8247 39.5453C71.0639 40.1111 71.1814 40.7378 71.1472 41.3911Z" fill="#D6BC61"/>
<path d="M52.2366 9.01753C52.2308 9.13087 52.1333 9.21837 52.0191 9.2117C51.6241 9.19503 51.2266 9.1867 50.8274 9.1867C35.4283 9.1867 22.9441 21.6709 22.9441 37.07C22.9441 48.7342 30.105 58.7259 40.2716 62.8867C40.3483 62.92 40.4 62.9975 40.3941 63.085C40.3883 63.1984 40.2908 63.2859 40.1766 63.2792C40.17 63.2792 40.1633 63.2784 40.1566 63.2775C40.1566 63.2775 40.1566 63.2775 40.1558 63.2775C40.145 63.275 40.1341 63.2725 40.1233 63.27C40.1216 63.2692 40.1191 63.2684 40.1166 63.2675C27.935 60.2817 18.8975 49.29 18.8975 36.1875C18.8975 20.7884 31.3816 8.3042 46.7808 8.3042C48.5858 8.3042 50.3516 8.4767 52.0608 8.8042C52.1608 8.81837 52.2366 8.91587 52.2366 9.01753Z" fill="#D6BC61"/>
<path d="M46.4801 70.6886C45.6467 70.6886 44.8634 70.1736 44.5617 69.3452C44.1759 68.2861 44.7226 67.1144 45.7817 66.7294L55.2476 63.2844C56.3067 62.8985 57.4784 63.4452 57.8634 64.5044C58.2492 65.5636 57.7026 66.7352 56.6434 67.1202L47.1776 70.5652C46.9476 70.6494 46.7117 70.6886 46.4801 70.6886Z" fill="#D6BC61"/>
<path d="M51.3868 81.6969C50.5535 81.6969 49.7701 81.1819 49.4685 80.3535C49.0826 79.2944 49.6293 78.1227 50.6885 77.7377L60.1543 74.2927C61.2135 73.9069 62.3851 74.4535 62.7701 75.5127C63.156 76.5719 62.6093 77.7435 61.5501 78.1285L52.0843 81.5735C51.8543 81.6569 51.6185 81.6969 51.3868 81.6969Z" fill="#D6BC61"/>
<path d="M47.5323 76.6941C46.699 76.6941 45.9156 76.1791 45.614 75.3508C45.2281 74.2916 45.7748 73.12 46.834 72.735L61.229 67.4958C62.2881 67.11 63.4598 67.6566 63.8448 68.7158C64.2306 69.775 63.684 70.9466 62.6248 71.3316L48.2298 76.5708C47.9998 76.6541 47.764 76.6941 47.5323 76.6941Z" fill="#D6BC61"/>
</svg>
