<svg width="55" height="55" viewBox="0 0 55 55" fill="none" xmlns="http://www.w3.org/2000/svg">
<path d="M54.1667 38.4313C54.1667 48.2896 48.2896 54.1667 38.4313 54.1667H35.2083C33.7188 54.1667 32.5 52.9479 32.5 51.4583V35.8313C32.5 35.1 33.0958 34.4771 33.8271 34.4771L38.5938 34.3959C38.9729 34.3688 39.2979 34.098 39.3792 33.7188L40.3271 28.5459C40.4084 28.0584 40.0292 27.5979 39.5146 27.5979L33.7458 27.6792C32.9875 27.6792 32.3917 27.0834 32.3646 26.3521L32.2563 19.7167C32.2563 19.2833 32.6083 18.9042 33.0687 18.9042L39.5687 18.7958C40.0291 18.7958 40.3813 18.4438 40.3813 17.9834L40.2729 11.4833C40.2729 11.0229 39.9209 10.6708 39.4604 10.6708L32.1479 10.7792C27.6521 10.8604 24.0771 14.5437 24.1584 19.0396L24.2938 26.4875C24.3208 27.2458 23.725 27.8417 22.9667 27.8688L19.7167 27.9229C19.2562 27.9229 18.9042 28.275 18.9042 28.7354L18.9854 33.8813C18.9854 34.3417 19.3375 34.6937 19.7979 34.6937L23.0479 34.6396C23.8063 34.6396 24.4021 35.2354 24.4291 35.9667L24.6729 51.4042C24.7 52.9209 23.4812 54.1667 21.9645 54.1667H15.7354C5.87708 54.1667 0 48.2896 0 38.4041V15.7354C0 5.87708 5.87708 0 15.7354 0H38.4313C48.2896 0 54.1667 5.87708 54.1667 15.7354V38.4313V38.4313Z" fill="url(#paint0_linear_96_102)"/>
<defs>
<linearGradient id="paint0_linear_96_102" x1="0" y1="27.0833" x2="54.1667" y2="27.0833" gradientUnits="userSpaceOnUse">
<stop stop-color="#9D9C9D"/>
<stop offset="1" stop-color="#373737"/>
</linearGradient>
</defs>
</svg>
