<svg width="55" height="55" viewBox="0 0 55 55" fill="none" xmlns="http://www.w3.org/2000/svg">
<path d="M38.4313 0H15.7354C5.87708 0 0 5.87708 0 15.7354V38.4042C0 48.2896 5.87708 54.1667 15.7354 54.1667H38.4042C48.2625 54.1667 54.1396 48.2896 54.1396 38.4313V15.7354C54.1667 5.87708 48.2896 0 38.4313 0ZM27.0833 37.5917C21.2875 37.5917 16.575 32.8792 16.575 27.0833C16.575 21.2875 21.2875 16.575 27.0833 16.575C32.8792 16.575 37.5917 21.2875 37.5917 27.0833C37.5917 32.8792 32.8792 37.5917 27.0833 37.5917ZM43.1167 13.2167C42.9813 13.5417 42.7917 13.8396 42.5479 14.1104C42.2771 14.3542 41.9792 14.5438 41.6542 14.6792C41.3292 14.8146 40.9771 14.8958 40.625 14.8958C39.8938 14.8958 39.2167 14.625 38.7021 14.1104C38.4583 13.8396 38.2688 13.5417 38.1333 13.2167C37.9979 12.8917 37.9167 12.5396 37.9167 12.1875C37.9167 11.8354 37.9979 11.4833 38.1333 11.1583C38.2688 10.8063 38.4583 10.5354 38.7021 10.2646C39.325 9.64167 40.2729 9.34375 41.1396 9.53333C41.3292 9.56042 41.4917 9.61458 41.6542 9.69583C41.8167 9.75 41.9792 9.83125 42.1417 9.93958C42.2771 10.0208 42.4125 10.1563 42.5479 10.2646C42.7917 10.5354 42.9813 10.8063 43.1167 11.1583C43.2521 11.4833 43.3333 11.8354 43.3333 12.1875C43.3333 12.5396 43.2521 12.8917 43.1167 13.2167Z" fill="url(#paint0_linear_66_184)"/>
<defs>
<linearGradient id="paint0_linear_66_184" x1="0" y1="27.0833" x2="54.1397" y2="27.0833" gradientUnits="userSpaceOnUse">
<stop stop-color="#9D9C9D"/>
<stop offset="1" stop-color="#373737"/>
</linearGradient>
</defs>
</svg>
