<svg width="55" height="55" viewBox="0 0 55 55" fill="none" xmlns="http://www.w3.org/2000/svg">
<path fill-rule="evenodd" clip-rule="evenodd" d="M20.1202 18.8744H30.179V23.8848C31.6279 21.0031 35.3438 18.414 40.9256 18.414C51.6263 18.414 54.1667 24.1502 54.1667 34.6748V54.1667H43.3333V37.0717C43.3333 31.0781 41.8844 27.6981 38.1956 27.6981C33.0796 27.6981 30.9535 31.3408 30.9535 37.069V54.1667H20.1202V18.8744V18.8744ZM1.54375 53.7063H12.3771V18.414H1.54375V53.7063V53.7063ZM13.929 6.90625C13.9294 7.81429 13.7493 8.71335 13.3992 9.55117C13.0491 10.389 12.5359 11.1489 11.8896 11.7867C10.5798 13.0884 8.80699 13.817 6.96042 13.8125C5.1171 13.8113 3.34834 13.0845 2.03667 11.7894C1.39266 11.1494 0.881253 10.3887 0.531764 9.55075C0.182275 8.71282 0.00156848 7.81415 0 6.90625C0 5.07271 0.73125 3.31771 2.03938 2.02313C3.3499 0.726262 5.1194 -0.000810362 6.96313 6.778e-07C8.81021 6.778e-07 10.5815 0.728542 11.8896 2.02313C13.195 3.31771 13.929 5.07271 13.929 6.90625Z" fill="url(#paint0_linear_66_193)"/>
<defs>
<linearGradient id="paint0_linear_66_193" x1="0" y1="27.0833" x2="54.1667" y2="27.0833" gradientUnits="userSpaceOnUse">
<stop stop-color="#9D9C9D"/>
<stop offset="1" stop-color="#373737"/>
</linearGradient>
</defs>
</svg>
