<svg width="54" height="48" viewBox="0 0 54 48" fill="none" xmlns="http://www.w3.org/2000/svg">
<path d="M53.0793 6.81326C53.3255 6.47209 52.9768 6.01883 52.5954 6.16772C51.5109 6.59107 50.3975 6.92642 49.2649 7.17096C48.8357 7.26364 48.5976 6.62293 48.9308 6.32316C50.2525 5.13389 51.3007 3.63785 51.9899 1.94859C52.1377 1.58628 51.761 1.25891 51.4304 1.44406C49.5349 2.50588 47.5021 3.27627 45.3977 3.73715C45.2602 3.76725 45.1185 3.71831 45.0207 3.6123C43.3353 1.78701 41.1381 0.575962 38.7494 0.159869C36.2865 -0.269166 33.7579 0.171014 31.5569 1.41198C29.3559 2.65294 27.6058 4.62515 26.5786 7.02201C25.6257 9.24563 25.3444 11.7192 25.7656 14.109C25.815 14.3891 25.6073 14.6517 25.3375 14.6327C21.0213 14.3285 16.8056 13.11 12.9439 11.0478C9.09618 8.99324 5.68205 6.14516 2.90313 2.67496C2.71998 2.44625 2.37591 2.47493 2.24596 2.741C1.42294 4.42612 0.992835 6.297 0.995388 8.19805C0.995388 11.7988 2.51172 15.0344 4.90679 17.2235C5.21516 17.5054 5.02552 18.0562 4.6223 17.9889C3.36594 17.7793 2.14912 17.3469 1.02445 16.7072C0.969928 16.6762 0.903305 16.7176 0.903305 16.7828C0.903222 19.5385 1.80798 22.2094 3.46412 24.3424C4.75577 26.0061 6.44245 27.2627 8.33864 27.9945C8.74097 28.1498 8.7304 28.7751 8.3047 28.8265C7.38922 28.937 6.46308 28.9302 5.54672 28.8053C5.24089 28.7636 4.98796 29.0681 5.09977 29.3708C5.87098 31.459 7.18656 33.2815 8.90101 34.624C10.4926 35.8703 12.3612 36.6507 14.3173 36.897C14.6967 36.9448 14.8525 37.4654 14.5405 37.6979C12.4165 39.2804 10.048 40.4689 7.53712 41.2087C5.22875 41.8889 2.83644 42.1792 0.448986 42.0724C0.0179418 42.0531 -0.175503 42.6614 0.199702 42.8857C5.02154 45.7688 10.481 47.2899 16.0456 47.2846C36.8835 47.2846 48.2748 29.1022 48.2748 13.3335C48.2748 12.8971 48.2669 12.4566 48.2513 12.0207C48.2461 11.8767 48.3092 11.7394 48.4193 11.6539C50.185 10.2819 51.7539 8.65044 53.0793 6.81326Z" fill="url(#paint0_linear_66_197)"/>
<defs>
<linearGradient id="paint0_linear_66_197" x1="0" y1="23.6423" x2="53.1616" y2="23.6423" gradientUnits="userSpaceOnUse">
<stop stop-color="#9D9C9D"/>
<stop offset="1" stop-color="#373737"/>
</linearGradient>
</defs>
</svg>
