<svg width="55" height="44" viewBox="0 0 55 44" fill="none" xmlns="http://www.w3.org/2000/svg">
<path d="M40.625 0H13.5417C5.41667 0 0 5.41667 0 13.5417V29.7917C0 37.9167 5.41667 43.3333 13.5417 43.3333H40.625C48.75 43.3333 54.1667 37.9167 54.1667 29.7917V13.5417C54.1667 5.41667 48.75 0 40.625 0ZM32.2021 24.4562L25.5125 28.4646C22.8041 30.0896 20.5833 28.8438 20.5833 25.675V17.6313C20.5833 14.4625 22.8041 13.2167 25.5125 14.8417L32.2021 18.85C34.775 20.4208 34.775 22.9125 32.2021 24.4562Z" fill="url(#paint0_linear_66_189)"/>
<defs>
<linearGradient id="paint0_linear_66_189" x1="0" y1="21.6667" x2="54.1667" y2="21.6667" gradientUnits="userSpaceOnUse">
<stop stop-color="#9D9C9D"/>
<stop offset="1" stop-color="#373737"/>
</linearGradient>
</defs>
</svg>
